<svg width="512" height="512" viewBox="0 0 512 512" fill="none" xmlns="http://www.w3.org/2000/svg">
<rect width="512" height="512" fill="#2A4036"/>
<g transform="translate(30, 0)">
    <!-- Microphone -->
    <path d="M136.5 304C136.5 310.351 131.351 315.5 125 315.5H119C112.649 315.5 107.5 310.351 107.5 304V280.5H136.5V304Z" fill="#A855F7"/>
    <rect x="117" y="315" width="10" height="20" fill="#A855F7"/>
    <path d="M165 212C165 174.423 134.577 144 97 144C59.4231 144 29 174.423 29 212V252C29 289.577 59.4231 320 97 320C134.577 320 165 289.577 165 252V212Z" fill="#A855F7"/>
    <rect x="49" y="194" width="96" height="12" rx="6" fill="#2A4036"/>
    <rect x="49" y="222" width="96" height="12" rx="6" fill="#2A4036"/>
    <rect x="49" y="250" width="96" height="12" rx="6" fill="#2A4036"/>

    <!-- Sound Wave -->
    <path d="M189 256L205 235L221 280L237 220L253 275L269 240L285 256" stroke="#F5F5F5" stroke-width="10" stroke-linecap="round" stroke-linejoin="round"/>

    <!-- Lightbulb -->
    <g>
        <!-- Bulb glass -->
        <circle cx="384" cy="216" r="80" fill="#FFFBEB" stroke="#A855F7" stroke-width="16"/>
        <!-- Bulb base -->
        <path d="M428 296H340V328H428V296Z" fill="#A855F7"/>
        <path d="M418 328H350V344H418V328Z" fill="#A855F7"/>
        <path d="M408 344H360V360H408V344Z" fill="#A855F7"/>
        <!-- Filament -->
        <path d="M366 226L374 206L382 236L390 206L398 226" stroke="#4A4A4A" stroke-width="6" stroke-linecap="round" stroke-linejoin="round"/>
    </g>
</g>
<!-- Text -->
<text fill="#FFFFFF" xml:space="preserve" style="white-space: pre" font-family="sans-serif" font-size="64" font-weight="bold" letter-spacing="0em"><tspan x="110" y="440">Idea Saver</tspan></text>
</svg>
