<svg viewBox="0 0 100 85" fill="none" xmlns="http://www.w3.org/2000/svg" role="img" aria-labelledby="logoTitle logoDesc">
  <title id="logoTitle">Idea Saver Icon</title>
  <desc id="logoDesc">An icon with a purple microphone, a white soundwave, and a purple and white lightbulb.</desc>
  <!-- Microphone Body -->
  <path d="M38 22C38 16.4772 42.4772 12 48 12C53.5228 12 58 16.4772 58 22V26H38V22Z" fill="#9c44dc"/>
  <path d="M38 31V34H58V31H38Z" fill="#9c44dc"/>
  <path d="M38 39V42H58V39H38Z" fill="#9c44dc"/>
  <path d="M38 47V48C38 53.5228 42.4772 58 48 58C53.5228 58 58 53.5228 58 48V47H38Z" fill="#9c44dc"/>
  <!-- Microphone Stand -->
  <path d="M45 58H51V68H45V58Z" fill="#9c44dc"/>
  <path d="M36 56H60V62H36V56Z" fill="#9c44dc"/>
  <path d="M42 68H54V72H42V68Z" fill="#9c44dc"/>

  <!-- Soundwave -->
  <path d="M60 44L63 49L66 39L69 52L72 41L75 47L78 44" stroke="#f5f3e6" stroke-width="2.5" stroke-linecap="round" stroke-linejoin="round"/>

  <!-- Lightbulb -->
  <path d="M89 39C89 31.268 82.732 25 75 25C67.268 25 61 31.268 61 39C61 44.5773 64.0566 49.3377 69 51.9811V58H81V51.9811C75.9434 49.3377 89 44.5773 89 39Z" stroke="#9c44dc" stroke-width="4" fill="#f5f3e6"/>
  <path d="M68 58H82V63H68V58Z" fill="#9c44dc"/>
  <path d="M67 63H83V66H67V63Z" fill="#9c44dc"/>
  <path d="M68 66H82V71H68V66Z" fill="#9c44dc"/>
  <path d="M67 71H83V74H67V71Z" fill="#9c44dc"/>
  <path d="M71 39L73 42L75 39L77 42L79 39" stroke="#9c44dc" stroke-width="2" stroke-linecap="round"/>
</svg>
