<svg xmlns="http://www.w3.org/2000/svg" width="1024" height="1024" viewBox="0 0 1024 1024">
    <g transform="translate(0 -22.34)">
        <circle cx="512" cy="512" r="512" fill="hsl(var(--primary))" transform="translate(0 22.34)"/>
        <path d="M472.28,744.11v-20.7c0-21.65,1-34.5,3.1-38.5s31-15.6,83.1-41.8c29-14.7,46-24.3,51.2-28.7,13.8-11.8,20.7-28.7,20.7-50.8,0-23.7-9.5-42.3-28.4-55.8-19-13.4-44.5-20.1-76.5-20.1-30.8,0-57.1,7.2-78.9,21.6-21.9,14.4-38.3,35.2-49.4,62.4l-33.3-13.8c13-34.8,35.6-63.1,67.7-84.9,32.1-21.8,70.1-32.8,114-32.8,47.4,0,88.4,11.5,123,34.5,34.5,23,51.8,55.1,51.8,96.3,0,22.8-5.3,44.7-15.9,65.6-10.6,20.9-29.3,41.8-56.1,62.8-21.1,16.5-37.4,28.2-48.9,35s-18.4,13.8-20.7,21.2c-2,6.7-3.1,20.7-3.1,42v20.7Zm-13.8,103.2v-41.3H561.7v41.3Z" transform="translate(37.41 11.23)" fill="#fff"/>
    </g>
</svg>